<?xml version="1.0" encoding="UTF-8"?>
<svg xmlns="http://www.w3.org/2000/svg" xmlns:xlink="http://www.w3.org/1999/xlink" width="50px" height="50px" viewBox="0 0 50 50" version="1.1">
<g id="surface1">
<path style=" stroke:none;fill-rule:nonzero;fill:rgb(99.607843%,99.607843%,99.607843%);fill-opacity:1;" d="M 6.179688 0.0117188 C 6.242188 0.0117188 6.304688 0.0117188 6.363281 0.0117188 C 6.53125 0.0117188 6.699219 0.0117188 6.871094 0.0117188 C 7.050781 0.0117188 7.234375 0.0117188 7.417969 0.0117188 C 7.738281 0.0117188 8.0625 0.0117188 8.382812 0.0117188 C 8.726562 0.0117188 9.070312 0.0117188 9.414062 0.0117188 C 9.4375 0.0117188 9.457031 0.0117188 9.480469 0.0117188 C 9.570312 0.0117188 9.660156 0.0117188 9.746094 0.0117188 C 10.671875 0.0117188 11.597656 0.0117188 12.523438 0.0117188 C 12.621094 0.0117188 12.722656 0.0117188 12.820312 0.0117188 C 12.84375 0.0117188 12.871094 0.0117188 12.894531 0.0117188 C 13.441406 0.0117188 13.988281 0.0117188 14.539062 0.0117188 C 14.761719 0.0117188 14.988281 0.0117188 15.214844 0.0117188 C 15.238281 0.0117188 15.265625 0.0117188 15.289062 0.0117188 C 16.71875 0.0117188 18.144531 0.0117188 19.574219 0.0117188 C 19.628906 0.0117188 19.679688 0.0117188 19.734375 0.0117188 C 19.976562 0.0117188 20.214844 0.0117188 20.457031 0.0117188 C 20.566406 0.0117188 20.671875 0.0117188 20.78125 0.0117188 C 20.832031 0.0117188 20.886719 0.0117188 20.941406 0.0117188 C 22.644531 0.0117188 24.34375 0.0117188 26.046875 0.0117188 C 26.476562 0.0117188 26.90625 0.0078125 27.332031 0.0078125 C 27.359375 0.0078125 27.386719 0.0078125 27.414062 0.0078125 C 28.226562 0.0078125 29.042969 0.0078125 29.855469 0.0078125 C 29.894531 0.0078125 29.894531 0.0078125 29.933594 0.0078125 C 30.496094 0.0078125 31.054688 0.0078125 31.617188 0.0078125 C 31.816406 0.0078125 32.019531 0.0078125 32.21875 0.0078125 C 32.269531 0.0078125 32.320312 0.0078125 32.371094 0.0078125 C 33.164062 0.0078125 33.960938 0.0078125 34.753906 0.0078125 C 35.558594 0.0078125 36.359375 0.0078125 37.160156 0.0078125 C 37.269531 0.0078125 37.382812 0.0078125 37.492188 0.0078125 C 37.515625 0.0078125 37.535156 0.0078125 37.558594 0.0078125 C 37.902344 0.0078125 38.246094 0.0078125 38.589844 0.0078125 C 38.925781 0.0078125 39.265625 0.0078125 39.601562 0.0078125 C 39.78125 0.0078125 39.964844 0.0078125 40.144531 0.0078125 C 40.308594 0.0078125 40.472656 0.0078125 40.636719 0.0078125 C 40.695312 0.0078125 40.753906 0.0078125 40.816406 0.0078125 C 41.125 0.0078125 41.429688 0.015625 41.738281 0.0429688 C 41.765625 0.0429688 41.792969 0.046875 41.824219 0.046875 C 42.933594 0.144531 44.03125 0.617188 44.875 1.34375 C 44.898438 1.363281 44.921875 1.382812 44.941406 1.402344 C 45.019531 1.46875 45.089844 1.535156 45.164062 1.605469 C 45.1875 1.625 45.1875 1.625 45.207031 1.644531 C 46.078125 2.460938 46.625 3.5625 46.84375 4.726562 C 46.847656 4.757812 46.855469 4.789062 46.863281 4.824219 C 46.988281 5.570312 46.933594 6.363281 46.933594 7.121094 C 46.933594 7.292969 46.933594 7.46875 46.933594 7.640625 C 46.933594 7.945312 46.933594 8.246094 46.9375 8.550781 C 46.9375 8.875 46.9375 9.199219 46.9375 9.527344 C 46.9375 9.554688 46.9375 9.554688 46.9375 9.589844 C 46.9375 9.691406 46.9375 9.796875 46.9375 9.902344 C 46.9375 10.664062 46.9375 11.421875 46.9375 12.179688 C 46.9375 12.929688 46.9375 13.683594 46.941406 14.433594 C 46.941406 14.457031 46.941406 14.480469 46.941406 14.503906 C 46.941406 14.71875 46.941406 14.929688 46.941406 15.144531 C 46.941406 15.675781 46.941406 16.203125 46.941406 16.734375 C 46.941406 16.769531 46.941406 16.769531 46.941406 16.808594 C 46.941406 17.980469 46.945312 19.152344 46.945312 20.328125 C 46.945312 20.734375 46.945312 21.140625 46.945312 21.546875 C 46.945312 21.574219 46.945312 21.597656 46.945312 21.625 C 46.945312 22.796875 46.945312 23.972656 46.949219 25.148438 C 46.949219 25.222656 46.949219 25.300781 46.949219 25.375 C 46.949219 25.882812 46.949219 26.386719 46.949219 26.890625 C 46.949219 27.898438 46.949219 28.902344 46.953125 29.910156 C 46.953125 29.957031 46.953125 30.003906 46.953125 30.054688 C 46.953125 32.207031 46.957031 34.363281 46.957031 36.515625 C 46.957031 36.535156 46.957031 36.558594 46.957031 36.578125 C 46.957031 37.585938 46.957031 38.59375 46.957031 39.601562 C 46.992188 39.621094 47.023438 39.640625 47.054688 39.65625 C 47.097656 39.679688 47.140625 39.703125 47.179688 39.726562 C 47.203125 39.738281 47.222656 39.75 47.246094 39.761719 C 47.394531 39.847656 47.539062 39.9375 47.679688 40.035156 C 47.699219 40.050781 47.71875 40.066406 47.742188 40.082031 C 47.90625 40.199219 48.054688 40.332031 48.203125 40.46875 C 48.242188 40.503906 48.28125 40.535156 48.316406 40.566406 C 49.324219 41.449219 49.90625 42.835938 49.992188 44.152344 C 50.066406 45.789062 49.492188 47.203125 48.398438 48.402344 C 47.484375 49.351562 46.097656 49.953125 44.785156 49.984375 C 43.289062 49.996094 41.894531 49.574219 40.792969 48.53125 C 40.753906 48.5 40.714844 48.464844 40.675781 48.429688 C 40.183594 48.003906 39.835938 47.429688 39.546875 46.855469 C 39.519531 46.855469 39.488281 46.855469 39.457031 46.855469 C 38.4375 46.855469 37.417969 46.855469 36.398438 46.855469 C 36.367188 46.855469 36.367188 46.855469 36.335938 46.855469 C 34.132812 46.855469 31.929688 46.855469 29.726562 46.851562 C 29.675781 46.851562 29.628906 46.851562 29.578125 46.851562 C 28.550781 46.851562 27.523438 46.851562 26.496094 46.851562 C 25.980469 46.851562 25.460938 46.851562 24.945312 46.851562 C 24.867188 46.851562 24.789062 46.851562 24.710938 46.851562 C 23.515625 46.851562 22.316406 46.847656 21.117188 46.847656 C 21.089844 46.847656 21.066406 46.847656 21.039062 46.847656 C 20.621094 46.847656 20.207031 46.847656 19.792969 46.847656 C 18.59375 46.847656 17.398438 46.847656 16.203125 46.847656 C 16.175781 46.847656 16.152344 46.847656 16.128906 46.847656 C 15.585938 46.847656 15.046875 46.847656 14.503906 46.847656 C 14.289062 46.847656 14.070312 46.847656 13.851562 46.847656 C 13.828125 46.847656 13.804688 46.847656 13.78125 46.84375 C 13.015625 46.84375 12.246094 46.84375 11.480469 46.84375 C 10.707031 46.84375 9.9375 46.84375 9.164062 46.84375 C 9.058594 46.84375 8.949219 46.84375 8.84375 46.84375 C 8.820312 46.84375 8.800781 46.84375 8.78125 46.84375 C 8.449219 46.84375 8.117188 46.84375 7.785156 46.84375 C 7.460938 46.84375 7.136719 46.84375 6.808594 46.84375 C 6.636719 46.84375 6.460938 46.84375 6.285156 46.84375 C 6.128906 46.84375 5.96875 46.84375 5.808594 46.84375 C 5.753906 46.84375 5.695312 46.84375 5.640625 46.84375 C 4.113281 46.851562 2.707031 46.191406 1.628906 45.132812 C 0.1875 43.6875 0 41.882812 0 39.949219 C 0 39.765625 0 39.582031 0 39.402344 C 0 39.082031 0 38.761719 0 38.441406 C 0 38.097656 0 37.757812 0 37.414062 C 0 37.390625 0 37.371094 0 37.347656 C 0 37.257812 0 37.171875 0 37.082031 C 0 36.261719 0 35.4375 0 34.617188 C 0 34.59375 0 34.566406 0 34.542969 C 0 34.519531 0 34.492188 0 34.46875 C 0 33.726562 0 32.984375 0 32.238281 C 0 32.191406 0 32.140625 0 32.089844 C 0 31.890625 0 31.691406 0 31.488281 C 0 30.929688 0 30.371094 0 29.8125 C 0 29.785156 0 29.757812 0 29.734375 C 0 28.921875 0 28.109375 0 27.296875 C 0 27.273438 0 27.246094 0 27.21875 C 0 26.792969 0 26.363281 0 25.9375 C 0 24.242188 0 22.550781 0 20.855469 C 0 20.425781 0 20 0 19.574219 C 0 19.535156 0 19.535156 0 19.492188 C 0 18.683594 0 17.871094 0 17.0625 C 0 17.035156 0 17.011719 0 16.984375 C 0 16.425781 0 15.867188 0 15.308594 C 0 15.109375 0 14.90625 0 14.707031 C 0 14.65625 0 14.609375 0 14.558594 C 0 13.816406 0 13.074219 0 12.328125 C 0 12.304688 0 12.28125 0 12.257812 C 0 12.230469 0 12.207031 0 12.183594 C 0 11.363281 0 10.542969 0 9.722656 C 0 9.636719 0 9.546875 0 9.457031 C 0 9.4375 0 9.414062 0 9.394531 C 0 9.050781 0 8.710938 0 8.367188 C 0 8.03125 0 7.695312 0 7.359375 C 0 7.179688 0 7 0 6.820312 C 0 5.078125 0.144531 3.449219 1.339844 2.066406 C 1.359375 2.046875 1.378906 2.023438 1.398438 2 C 1.464844 1.925781 1.53125 1.851562 1.601562 1.777344 C 1.613281 1.765625 1.625 1.75 1.640625 1.734375 C 2.839844 0.460938 4.476562 0.0117188 6.179688 0.0117188 Z M 6.179688 0.0117188 "/>
<path style=" stroke:none;fill-rule:nonzero;fill:rgb(23.137255%,27.058825%,90.196079%);fill-opacity:1;" d="M 6.179688 0.0117188 C 6.242188 0.0117188 6.304688 0.0117188 6.363281 0.0117188 C 6.53125 0.0117188 6.699219 0.0117188 6.871094 0.0117188 C 7.050781 0.0117188 7.234375 0.0117188 7.417969 0.0117188 C 7.738281 0.0117188 8.0625 0.0117188 8.382812 0.0117188 C 8.726562 0.0117188 9.070312 0.0117188 9.414062 0.0117188 C 9.4375 0.0117188 9.457031 0.0117188 9.480469 0.0117188 C 9.570312 0.0117188 9.660156 0.0117188 9.746094 0.0117188 C 10.671875 0.0117188 11.597656 0.0117188 12.523438 0.0117188 C 12.621094 0.0117188 12.722656 0.0117188 12.820312 0.0117188 C 12.84375 0.0117188 12.871094 0.0117188 12.894531 0.0117188 C 13.441406 0.0117188 13.988281 0.0117188 14.539062 0.0117188 C 14.761719 0.0117188 14.988281 0.0117188 15.214844 0.0117188 C 15.238281 0.0117188 15.265625 0.0117188 15.289062 0.0117188 C 16.71875 0.0117188 18.144531 0.0117188 19.574219 0.0117188 C 19.628906 0.0117188 19.679688 0.0117188 19.734375 0.0117188 C 19.976562 0.0117188 20.214844 0.0117188 20.457031 0.0117188 C 20.566406 0.0117188 20.671875 0.0117188 20.78125 0.0117188 C 20.832031 0.0117188 20.886719 0.0117188 20.941406 0.0117188 C 22.644531 0.0117188 24.34375 0.0117188 26.046875 0.0117188 C 26.476562 0.0117188 26.90625 0.0078125 27.332031 0.0078125 C 27.359375 0.0078125 27.386719 0.0078125 27.414062 0.0078125 C 28.226562 0.0078125 29.042969 0.0078125 29.855469 0.0078125 C 29.894531 0.0078125 29.894531 0.0078125 29.933594 0.0078125 C 30.496094 0.0078125 31.054688 0.0078125 31.617188 0.0078125 C 31.816406 0.0078125 32.019531 0.0078125 32.21875 0.0078125 C 32.269531 0.0078125 32.320312 0.0078125 32.371094 0.0078125 C 33.164062 0.0078125 33.960938 0.0078125 34.753906 0.0078125 C 35.558594 0.0078125 36.359375 0.0078125 37.160156 0.0078125 C 37.269531 0.0078125 37.382812 0.0078125 37.492188 0.0078125 C 37.515625 0.0078125 37.535156 0.0078125 37.558594 0.0078125 C 37.902344 0.0078125 38.246094 0.0078125 38.589844 0.0078125 C 38.925781 0.0078125 39.265625 0.0078125 39.601562 0.0078125 C 39.78125 0.0078125 39.964844 0.0078125 40.144531 0.0078125 C 40.308594 0.0078125 40.472656 0.0078125 40.636719 0.0078125 C 40.695312 0.0078125 40.753906 0.0078125 40.816406 0.0078125 C 41.125 0.0078125 41.429688 0.015625 41.738281 0.0429688 C 41.765625 0.0429688 41.792969 0.046875 41.824219 0.046875 C 42.933594 0.144531 44.03125 0.617188 44.875 1.34375 C 44.898438 1.363281 44.921875 1.382812 44.941406 1.402344 C 45.019531 1.46875 45.089844 1.535156 45.164062 1.605469 C 45.1875 1.625 45.1875 1.625 45.207031 1.644531 C 46.070312 2.453125 46.636719 3.566406 46.84375 4.726562 C 46.847656 4.753906 46.851562 4.78125 46.859375 4.808594 C 46.902344 5.09375 46.910156 5.375 46.90625 5.664062 C 46.90625 5.71875 46.910156 5.773438 46.910156 5.824219 C 46.910156 5.972656 46.910156 6.117188 46.90625 6.265625 C 46.90625 6.425781 46.90625 6.585938 46.90625 6.742188 C 46.910156 7.023438 46.90625 7.304688 46.90625 7.582031 C 46.90625 7.996094 46.90625 8.414062 46.90625 8.828125 C 46.90625 9.527344 46.90625 10.226562 46.90625 10.925781 C 46.90625 11.617188 46.90625 12.308594 46.90625 13.003906 C 46.90625 13.023438 46.90625 13.046875 46.90625 13.066406 C 46.90625 13.265625 46.90625 13.460938 46.90625 13.65625 C 46.90625 14.144531 46.90625 14.632812 46.90625 15.121094 C 46.90625 15.144531 46.90625 15.167969 46.90625 15.1875 C 46.90625 16.269531 46.90625 17.351562 46.90625 18.433594 C 46.90625 18.808594 46.90625 19.183594 46.90625 19.558594 C 46.90625 19.59375 46.90625 19.59375 46.90625 19.628906 C 46.90625 20.710938 46.90625 21.792969 46.902344 22.875 C 46.902344 22.945312 46.902344 23.015625 46.902344 23.085938 C 46.902344 23.550781 46.902344 24.015625 46.902344 24.480469 C 46.902344 25.40625 46.902344 26.332031 46.902344 27.261719 C 46.902344 27.304688 46.902344 27.347656 46.902344 27.390625 C 46.902344 29.738281 46.902344 32.085938 46.902344 36.195312 C 46.816406 36.175781 46.734375 36.15625 46.648438 36.136719 C 46.625 36.132812 46.601562 36.128906 46.578125 36.121094 C 46.464844 36.097656 46.347656 36.070312 46.234375 36.042969 C 45.085938 35.789062 43.773438 35.78125 42.632812 36.082031 C 42.542969 36.105469 42.476562 36.109375 42.386719 36.105469 C 42.386719 36.082031 42.386719 36.054688 42.386719 36.03125 C 42.382812 33.5 42.382812 30.972656 42.378906 27.761719 C 42.378906 27.71875 42.378906 27.675781 42.378906 27.636719 C 42.378906 26.761719 42.378906 25.890625 42.378906 25.015625 C 42.378906 24.578125 42.378906 24.140625 42.378906 23.703125 C 42.378906 23.636719 42.378906 23.570312 42.378906 23.503906 C 42.378906 22.484375 42.375 21.464844 42.375 20.449219 C 42.375 20.425781 42.375 20.402344 42.375 20.382812 C 42.375 20.027344 42.375 19.675781 42.375 19.324219 C 42.375 18.304688 42.375 17.289062 42.375 16.273438 C 42.375 16.242188 42.375 16.242188 42.375 16.207031 C 42.375 15.75 42.371094 15.289062 42.371094 14.832031 C 42.371094 14.648438 42.371094 14.460938 42.371094 14.277344 C 42.371094 14.257812 42.371094 14.238281 42.371094 14.214844 C 42.371094 13.566406 42.371094 12.914062 42.371094 12.261719 C 42.371094 11.585938 42.371094 10.914062 42.371094 10.238281 C 42.371094 9.851562 42.367188 9.460938 42.367188 9.074219 C 42.371094 8.8125 42.367188 8.554688 42.367188 8.292969 C 42.367188 8.144531 42.367188 7.996094 42.367188 7.847656 C 42.367188 7.714844 42.367188 7.578125 42.367188 7.445312 C 42.367188 7.398438 42.367188 7.347656 42.367188 7.300781 C 42.371094 6.5625 42.132812 5.890625 41.621094 5.347656 C 41.183594 4.914062 40.53125 4.578125 39.90625 4.578125 C 39.871094 4.578125 39.871094 4.578125 39.839844 4.578125 C 39.816406 4.578125 39.792969 4.578125 39.769531 4.578125 C 39.691406 4.578125 39.613281 4.578125 39.535156 4.578125 C 39.476562 4.578125 39.421875 4.578125 39.363281 4.578125 C 39.207031 4.578125 39.050781 4.578125 38.894531 4.578125 C 38.722656 4.578125 38.554688 4.578125 38.382812 4.578125 C 38.085938 4.578125 37.789062 4.578125 37.488281 4.578125 C 37.167969 4.578125 36.847656 4.578125 36.527344 4.578125 C 36.507812 4.578125 36.488281 4.578125 36.46875 4.578125 C 36.382812 4.578125 36.300781 4.578125 36.21875 4.578125 C 35.246094 4.574219 34.269531 4.574219 33.292969 4.574219 C 32.808594 4.574219 32.324219 4.574219 31.839844 4.574219 C 30.28125 4.574219 28.722656 4.574219 27.167969 4.574219 C 27.09375 4.574219 27.019531 4.574219 26.941406 4.574219 C 26.792969 4.574219 26.644531 4.574219 26.496094 4.574219 C 26.320312 4.574219 26.144531 4.574219 25.972656 4.574219 C 25.921875 4.574219 25.871094 4.574219 25.820312 4.574219 C 24.214844 4.574219 22.609375 4.574219 21 4.574219 C 19.847656 4.574219 18.691406 4.574219 17.539062 4.570312 C 17.515625 4.570312 17.492188 4.570312 17.464844 4.570312 C 16.945312 4.570312 16.425781 4.570312 15.902344 4.570312 C 15.714844 4.570312 15.53125 4.570312 15.34375 4.570312 C 15.296875 4.570312 15.25 4.570312 15.203125 4.570312 C 14.464844 4.570312 13.726562 4.570312 12.988281 4.570312 C 12.242188 4.570312 11.496094 4.570312 10.753906 4.570312 C 10.648438 4.570312 10.546875 4.570312 10.445312 4.570312 C 10.425781 4.570312 10.402344 4.570312 10.382812 4.570312 C 10.0625 4.570312 9.746094 4.570312 9.425781 4.570312 C 9.109375 4.570312 8.796875 4.570312 8.484375 4.570312 C 8.316406 4.570312 8.148438 4.570312 7.980469 4.570312 C 7.828125 4.570312 7.671875 4.570312 7.519531 4.570312 C 7.464844 4.570312 7.410156 4.570312 7.355469 4.570312 C 6.59375 4.566406 5.914062 4.785156 5.351562 5.316406 C 4.90625 5.757812 4.582031 6.40625 4.578125 7.035156 C 4.578125 7.058594 4.578125 7.078125 4.578125 7.101562 C 4.578125 7.125 4.578125 7.148438 4.578125 7.171875 C 4.578125 7.25 4.578125 7.328125 4.578125 7.40625 C 4.578125 7.460938 4.578125 7.519531 4.578125 7.574219 C 4.578125 7.730469 4.578125 7.886719 4.578125 8.042969 C 4.578125 8.214844 4.578125 8.382812 4.578125 8.550781 C 4.578125 8.851562 4.578125 9.148438 4.578125 9.445312 C 4.574219 9.765625 4.574219 10.085938 4.574219 10.402344 C 4.574219 10.421875 4.574219 10.445312 4.574219 10.464844 C 4.574219 10.546875 4.574219 10.628906 4.574219 10.710938 C 4.574219 11.707031 4.574219 12.703125 4.574219 13.699219 C 4.574219 14.019531 4.574219 14.34375 4.574219 14.667969 C 4.574219 16.359375 4.570312 18.050781 4.570312 19.742188 C 4.570312 19.867188 4.570312 19.988281 4.570312 20.113281 C 4.570312 20.136719 4.570312 20.164062 4.570312 20.1875 C 4.570312 20.4375 4.570312 20.6875 4.570312 20.933594 C 4.570312 20.984375 4.570312 21.035156 4.570312 21.085938 C 4.570312 22.6875 4.570312 24.289062 4.570312 25.890625 C 4.566406 27.042969 4.566406 28.195312 4.566406 29.347656 C 4.566406 29.371094 4.566406 29.394531 4.566406 29.417969 C 4.566406 29.9375 4.566406 30.457031 4.566406 30.976562 C 4.566406 31.1875 4.566406 31.394531 4.566406 31.605469 C 4.566406 31.628906 4.566406 31.652344 4.566406 31.675781 C 4.566406 32.414062 4.566406 33.148438 4.566406 33.886719 C 4.566406 34.628906 4.5625 35.371094 4.566406 36.113281 C 4.566406 36.21875 4.566406 36.320312 4.566406 36.421875 C 4.566406 36.441406 4.566406 36.464844 4.566406 36.484375 C 4.566406 36.800781 4.5625 37.121094 4.5625 37.4375 C 4.5625 37.753906 4.5625 38.066406 4.5625 38.378906 C 4.5625 38.546875 4.5625 38.714844 4.5625 38.882812 C 4.5625 39.035156 4.5625 39.1875 4.5625 39.339844 C 4.5625 39.394531 4.5625 39.449219 4.5625 39.503906 C 4.558594 40.300781 4.828125 41.023438 5.390625 41.597656 C 5.960938 42.132812 6.691406 42.300781 7.453125 42.296875 C 7.503906 42.296875 7.554688 42.296875 7.605469 42.296875 C 7.742188 42.300781 7.878906 42.300781 8.015625 42.300781 C 8.164062 42.300781 8.316406 42.300781 8.464844 42.300781 C 8.726562 42.300781 8.988281 42.300781 9.253906 42.300781 C 9.640625 42.300781 10.03125 42.300781 10.421875 42.300781 C 11.078125 42.300781 11.734375 42.300781 12.390625 42.300781 C 13.039062 42.300781 13.6875 42.304688 14.339844 42.304688 C 14.359375 42.304688 14.378906 42.304688 14.398438 42.304688 C 14.585938 42.304688 14.769531 42.304688 14.953125 42.304688 C 15.410156 42.304688 15.871094 42.304688 16.328125 42.304688 C 16.359375 42.304688 16.359375 42.304688 16.390625 42.304688 C 17.40625 42.304688 18.421875 42.308594 19.433594 42.308594 C 19.789062 42.308594 20.140625 42.308594 20.492188 42.308594 C 20.511719 42.308594 20.535156 42.308594 20.558594 42.308594 C 21.574219 42.308594 22.589844 42.308594 23.601562 42.308594 C 23.667969 42.308594 23.734375 42.3125 23.800781 42.3125 C 24.238281 42.3125 24.675781 42.3125 25.113281 42.3125 C 25.980469 42.3125 26.851562 42.3125 27.71875 42.3125 C 27.761719 42.3125 27.800781 42.3125 27.84375 42.3125 C 30.316406 42.316406 32.789062 42.316406 36.105469 42.320312 C 36.101562 42.367188 36.09375 42.414062 36.089844 42.460938 C 36.089844 42.484375 36.085938 42.511719 36.082031 42.539062 C 36.074219 42.613281 36.058594 42.6875 36.035156 42.761719 C 35.992188 42.925781 35.964844 43.09375 35.941406 43.265625 C 35.9375 43.304688 35.9375 43.304688 35.929688 43.34375 C 35.878906 43.742188 35.867188 44.148438 35.867188 44.554688 C 35.863281 44.574219 35.863281 44.597656 35.863281 44.621094 C 35.867188 45.207031 35.921875 45.777344 36.058594 46.347656 C 36.078125 46.441406 36.101562 46.539062 36.121094 46.632812 C 36.132812 46.6875 36.132812 46.6875 36.144531 46.742188 C 36.152344 46.785156 36.152344 46.785156 36.160156 46.828125 C 31.210938 46.832031 31.210938 46.832031 27.308594 46.832031 C 27.261719 46.832031 27.21875 46.832031 27.175781 46.832031 C 26.246094 46.832031 25.320312 46.832031 24.394531 46.832031 C 23.929688 46.832031 23.464844 46.832031 23 46.832031 C 22.929688 46.832031 22.859375 46.832031 22.789062 46.832031 C 21.707031 46.835938 20.625 46.835938 19.546875 46.835938 C 19.523438 46.835938 19.5 46.835938 19.476562 46.835938 C 19.101562 46.835938 18.726562 46.835938 18.351562 46.835938 C 17.273438 46.835938 16.195312 46.835938 15.117188 46.839844 C 15.082031 46.839844 15.082031 46.839844 15.050781 46.839844 C 14.5625 46.839844 14.074219 46.839844 13.585938 46.839844 C 13.390625 46.839844 13.195312 46.839844 13 46.839844 C 12.964844 46.839844 12.964844 46.839844 12.933594 46.839844 C 12.242188 46.839844 11.550781 46.839844 10.859375 46.839844 C 10.164062 46.839844 9.46875 46.839844 8.773438 46.839844 C 8.339844 46.839844 7.910156 46.839844 7.476562 46.839844 C 7.199219 46.84375 6.925781 46.84375 6.648438 46.839844 C 6.492188 46.839844 6.335938 46.839844 6.179688 46.84375 C 4.964844 46.847656 4.964844 46.847656 4.4375 46.710938 C 4.410156 46.707031 4.382812 46.699219 4.355469 46.691406 C 2.882812 46.320312 1.601562 45.382812 0.816406 44.082031 C 0.046875 42.765625 0 41.433594 0 39.949219 C 0 39.765625 0 39.582031 0 39.402344 C 0 39.082031 0 38.761719 0 38.441406 C 0 38.097656 0 37.757812 0 37.414062 C 0 37.390625 0 37.371094 0 37.347656 C 0 37.257812 0 37.171875 0 37.082031 C 0 36.261719 0 35.4375 0 34.617188 C 0 34.59375 0 34.566406 0 34.542969 C 0 34.519531 0 34.492188 0 34.46875 C 0 33.726562 0 32.984375 0 32.238281 C 0 32.191406 0 32.140625 0 32.089844 C 0 31.890625 0 31.691406 0 31.488281 C 0 30.929688 0 30.371094 0 29.8125 C 0 29.785156 0 29.757812 0 29.734375 C 0 28.921875 0 28.109375 0 27.296875 C 0 27.273438 0 27.246094 0 27.21875 C 0 26.792969 0 26.363281 0 25.9375 C 0 24.242188 0 22.550781 0 20.855469 C 0 20.425781 0 20 0 19.574219 C 0 19.535156 0 19.535156 0 19.492188 C 0 18.683594 0 17.871094 0 17.0625 C 0 17.035156 0 17.011719 0 16.984375 C 0 16.425781 0 15.867188 0 15.308594 C 0 15.109375 0 14.90625 0 14.707031 C 0 14.65625 0 14.609375 0 14.558594 C 0 13.816406 0 13.074219 0 12.328125 C 0 12.304688 0 12.28125 0 12.257812 C 0 12.230469 0 12.207031 0 12.183594 C 0 11.363281 0 10.542969 0 9.722656 C 0 9.636719 0 9.546875 0 9.457031 C 0 9.4375 0 9.414062 0 9.394531 C 0 9.050781 0 8.710938 0 8.367188 C 0 8.03125 0 7.695312 0 7.359375 C 0 7.179688 0 7 0 6.820312 C 0 5.078125 0.144531 3.449219 1.339844 2.066406 C 1.359375 2.046875 1.378906 2.023438 1.398438 2 C 1.464844 1.925781 1.53125 1.851562 1.601562 1.777344 C 1.613281 1.765625 1.625 1.75 1.640625 1.734375 C 2.839844 0.460938 4.476562 0.0117188 6.179688 0.0117188 Z M 6.179688 0.0117188 "/>
<path style=" stroke:none;fill-rule:nonzero;fill:rgb(19.607843%,26.666668%,91.37255%);fill-opacity:1;" d="M 31.699219 11.078125 C 31.746094 11.078125 31.792969 11.078125 31.839844 11.078125 C 31.964844 11.078125 32.089844 11.078125 32.21875 11.078125 C 32.347656 11.078125 32.480469 11.078125 32.613281 11.078125 C 32.859375 11.078125 33.109375 11.078125 33.359375 11.078125 C 33.644531 11.078125 33.925781 11.078125 34.210938 11.082031 C 34.792969 11.082031 35.375 11.082031 35.960938 11.082031 C 35.960938 14.207031 35.960938 17.332031 35.960938 23.015625 C 35.960938 23.046875 35.960938 23.074219 35.960938 23.105469 C 35.957031 24.375 35.957031 25.644531 35.953125 26.914062 C 35.953125 26.933594 35.953125 26.957031 35.953125 26.976562 C 35.953125 27 35.953125 27.019531 35.953125 27.042969 C 35.953125 27.0625 35.953125 27.085938 35.953125 27.105469 C 35.953125 27.148438 35.953125 27.191406 35.953125 27.234375 C 35.953125 27.546875 35.953125 27.863281 35.953125 28.175781 C 35.949219 28.527344 35.949219 28.878906 35.949219 29.226562 C 35.949219 29.402344 35.949219 29.578125 35.949219 29.753906 C 35.949219 31.359375 35.949219 31.359375 35.699219 32.089844 C 35.683594 32.132812 35.671875 32.175781 35.65625 32.21875 C 35.421875 32.941406 35.070312 33.601562 34.570312 34.171875 C 34.546875 34.195312 34.527344 34.222656 34.503906 34.246094 C 34.4375 34.320312 34.375 34.390625 34.308594 34.460938 C 34.292969 34.476562 34.277344 34.496094 34.261719 34.511719 C 33.558594 35.253906 32.46875 35.773438 31.445312 35.804688 C 30.996094 35.8125 30.574219 35.78125 30.140625 35.644531 C 30.121094 35.636719 30.097656 35.632812 30.078125 35.625 C 29.234375 35.363281 28.582031 34.734375 28.019531 34.082031 C 27.929688 33.980469 27.839844 33.886719 27.746094 33.789062 C 27.609375 33.640625 27.46875 33.492188 27.328125 33.34375 C 27.207031 33.210938 27.082031 33.074219 26.957031 32.941406 C 26.816406 32.792969 26.675781 32.644531 26.539062 32.492188 C 26.425781 32.371094 26.316406 32.253906 26.203125 32.132812 C 26.0625 31.984375 25.925781 31.835938 25.785156 31.683594 C 25.675781 31.5625 25.5625 31.445312 25.453125 31.324219 C 25.3125 31.175781 25.171875 31.023438 25.035156 30.875 C 24.921875 30.753906 24.808594 30.632812 24.699219 30.515625 C 24.550781 30.355469 24.40625 30.199219 24.261719 30.042969 C 24.148438 29.921875 24.039062 29.800781 23.925781 29.683594 C 23.816406 29.566406 23.707031 29.449219 23.597656 29.332031 C 23.472656 29.195312 23.347656 29.0625 23.222656 28.925781 C 23.082031 28.777344 22.945312 28.625 22.804688 28.476562 C 22.695312 28.355469 22.582031 28.238281 22.46875 28.117188 C 22.332031 27.96875 22.191406 27.816406 22.050781 27.667969 C 21.941406 27.546875 21.828125 27.425781 21.71875 27.308594 C 21.578125 27.160156 21.4375 27.007812 21.300781 26.859375 C 21.1875 26.738281 21.078125 26.617188 20.964844 26.5 C 20.824219 26.347656 20.6875 26.199219 20.546875 26.046875 C 20.4375 25.929688 20.324219 25.808594 20.210938 25.691406 C 20.070312 25.539062 19.933594 25.390625 19.792969 25.238281 C 19.714844 25.15625 19.640625 25.074219 19.566406 24.992188 C 19.273438 24.679688 19.273438 24.679688 19.132812 24.515625 C 19.074219 24.449219 19.011719 24.382812 18.953125 24.316406 C 18.875 24.230469 18.800781 24.144531 18.722656 24.058594 C 18.621094 23.941406 18.511719 23.824219 18.40625 23.707031 C 18.347656 23.640625 18.285156 23.570312 18.226562 23.503906 C 18.199219 23.472656 18.199219 23.472656 18.171875 23.441406 C 18.15625 23.425781 18.144531 23.410156 18.128906 23.394531 C 18.128906 23.421875 18.128906 23.421875 18.128906 23.453125 C 18.128906 24.65625 18.125 25.859375 18.125 27.058594 C 18.121094 27.203125 18.121094 27.347656 18.121094 27.492188 C 18.121094 27.535156 18.121094 27.535156 18.121094 27.582031 C 18.121094 28.046875 18.121094 28.511719 18.121094 28.976562 C 18.121094 29.453125 18.121094 29.929688 18.117188 30.410156 C 18.117188 30.703125 18.117188 30.996094 18.117188 31.292969 C 18.117188 31.496094 18.117188 31.695312 18.117188 31.898438 C 18.117188 32.015625 18.117188 32.132812 18.117188 32.25 C 18.117188 33.296875 17.96875 34.265625 17.203125 35.039062 C 16.621094 35.609375 15.9375 35.835938 15.136719 35.828125 C 15.089844 35.828125 15.042969 35.828125 15 35.828125 C 14.875 35.828125 14.753906 35.828125 14.632812 35.828125 C 14.503906 35.828125 14.375 35.828125 14.246094 35.828125 C 14.003906 35.824219 13.757812 35.824219 13.515625 35.824219 C 13.238281 35.824219 12.960938 35.824219 12.683594 35.824219 C 12.117188 35.820312 11.546875 35.820312 10.980469 35.816406 C 10.976562 33.34375 10.976562 30.871094 10.980469 27.964844 C 10.980469 27.753906 10.980469 27.539062 10.980469 27.324219 C 10.980469 25.703125 10.980469 24.082031 10.984375 22.460938 C 10.984375 22.328125 10.984375 22.191406 10.984375 22.054688 C 10.984375 22.019531 10.984375 21.988281 10.984375 21.953125 C 10.984375 21.40625 10.984375 20.863281 10.988281 20.320312 C 10.988281 19.769531 10.988281 19.214844 10.988281 18.664062 C 10.988281 18.328125 10.988281 17.996094 10.988281 17.664062 C 10.988281 17.441406 10.992188 17.214844 10.992188 16.992188 C 10.992188 16.863281 10.992188 16.734375 10.992188 16.609375 C 10.988281 15.042969 11.394531 13.585938 12.523438 12.449219 C 13.085938 11.894531 13.792969 11.46875 14.566406 11.285156 C 14.59375 11.277344 14.621094 11.273438 14.644531 11.265625 C 15.1875 11.148438 15.796875 11.148438 16.332031 11.285156 C 16.351562 11.289062 16.371094 11.292969 16.390625 11.296875 C 17.191406 11.488281 17.945312 11.945312 18.476562 12.574219 C 18.558594 12.671875 18.644531 12.765625 18.734375 12.855469 C 18.867188 13 19.003906 13.144531 19.132812 13.292969 C 19.210938 13.378906 19.289062 13.464844 19.371094 13.550781 C 19.382812 13.566406 19.398438 13.582031 19.414062 13.597656 C 19.429688 13.613281 19.445312 13.628906 19.457031 13.644531 C 19.636719 13.839844 19.816406 14.035156 19.992188 14.230469 C 20.121094 14.375 20.253906 14.515625 20.386719 14.65625 C 20.507812 14.789062 20.628906 14.921875 20.753906 15.058594 C 20.804688 15.113281 20.859375 15.171875 20.910156 15.230469 C 20.9375 15.257812 20.964844 15.289062 20.992188 15.316406 C 21.058594 15.390625 21.125 15.460938 21.191406 15.535156 C 21.3125 15.667969 21.4375 15.800781 21.558594 15.9375 C 21.6875 16.078125 21.816406 16.222656 21.949219 16.363281 C 22.070312 16.496094 22.191406 16.628906 22.316406 16.761719 C 22.367188 16.820312 22.421875 16.875 22.472656 16.933594 C 22.5 16.964844 22.527344 16.992188 22.554688 17.019531 C 22.621094 17.09375 22.6875 17.167969 22.753906 17.238281 C 22.878906 17.371094 23 17.507812 23.121094 17.640625 C 23.25 17.785156 23.378906 17.925781 23.511719 18.066406 C 23.632812 18.199219 23.757812 18.332031 23.878906 18.464844 C 23.945312 18.539062 24.011719 18.609375 24.078125 18.683594 C 24.101562 18.710938 24.128906 18.742188 24.15625 18.769531 C 24.167969 18.785156 24.183594 18.796875 24.195312 18.8125 C 24.234375 18.855469 24.277344 18.898438 24.316406 18.941406 C 24.328125 18.957031 24.34375 18.972656 24.355469 18.984375 C 24.382812 19.015625 24.410156 19.042969 24.433594 19.074219 C 24.503906 19.144531 24.570312 19.21875 24.636719 19.292969 C 24.757812 19.425781 24.878906 19.558594 25 19.691406 C 25.128906 19.835938 25.261719 19.976562 25.394531 20.117188 C 25.515625 20.25 25.636719 20.386719 25.761719 20.519531 C 25.824219 20.589844 25.890625 20.664062 25.957031 20.734375 C 25.984375 20.761719 26.011719 20.792969 26.039062 20.820312 C 26.050781 20.835938 26.0625 20.851562 26.078125 20.863281 C 26.117188 20.90625 26.15625 20.949219 26.195312 20.996094 C 26.210938 21.007812 26.222656 21.023438 26.238281 21.039062 C 26.261719 21.066406 26.289062 21.09375 26.316406 21.125 C 26.382812 21.199219 26.449219 21.269531 26.519531 21.34375 C 26.640625 21.476562 26.761719 21.609375 26.882812 21.742188 C 27.011719 21.886719 27.144531 22.027344 27.273438 22.171875 C 27.398438 22.304688 27.519531 22.4375 27.640625 22.570312 C 27.707031 22.640625 27.773438 22.714844 27.839844 22.785156 C 27.867188 22.816406 27.894531 22.84375 27.917969 22.871094 C 27.933594 22.886719 27.945312 22.902344 27.960938 22.917969 C 28 22.960938 28.039062 23.003906 28.078125 23.046875 C 28.09375 23.058594 28.105469 23.074219 28.117188 23.089844 C 28.144531 23.117188 28.171875 23.148438 28.199219 23.175781 C 28.265625 23.25 28.332031 23.324219 28.402344 23.398438 C 28.417969 23.414062 28.429688 23.429688 28.445312 23.445312 C 28.484375 23.484375 28.523438 23.527344 28.558594 23.570312 C 28.617188 23.632812 28.671875 23.695312 28.726562 23.757812 C 28.742188 23.777344 28.757812 23.796875 28.773438 23.8125 C 28.785156 23.828125 28.796875 23.839844 28.808594 23.855469 C 28.808594 23.835938 28.808594 23.8125 28.808594 23.792969 C 28.8125 22.542969 28.8125 21.296875 28.816406 20.046875 C 28.816406 19.898438 28.816406 19.75 28.816406 19.597656 C 28.816406 19.566406 28.816406 19.539062 28.816406 19.507812 C 28.820312 19.023438 28.820312 18.542969 28.820312 18.058594 C 28.820312 17.5625 28.820312 17.066406 28.824219 16.570312 C 28.824219 16.265625 28.824219 15.960938 28.824219 15.65625 C 28.824219 15.445312 28.824219 15.234375 28.824219 15.023438 C 28.824219 14.90625 28.824219 14.785156 28.824219 14.664062 C 28.824219 13.730469 28.824219 13.730469 28.925781 13.335938 C 28.933594 13.308594 28.9375 13.285156 28.945312 13.257812 C 28.960938 13.195312 28.980469 13.136719 29 13.078125 C 29.011719 13.046875 29.011719 13.046875 29.023438 13.011719 C 29.304688 12.230469 29.84375 11.625 30.59375 11.269531 C 30.730469 11.210938 30.867188 11.171875 31.007812 11.140625 C 31.039062 11.132812 31.070312 11.121094 31.101562 11.109375 C 31.296875 11.0625 31.5 11.074219 31.699219 11.078125 Z M 31.699219 11.078125 "/>
<path style=" stroke:none;fill-rule:nonzero;fill:rgb(21.568628%,27.450982%,90.196079%);fill-opacity:1;" d="M 15.929688 21.050781 C 15.929688 21.070312 15.929688 21.089844 15.929688 21.109375 C 15.945312 21.113281 15.964844 21.117188 15.980469 21.121094 C 16.042969 21.140625 16.042969 21.140625 16.132812 21.195312 C 16.132812 21.214844 16.132812 21.234375 16.132812 21.253906 C 16.152344 21.261719 16.175781 21.269531 16.195312 21.273438 C 16.292969 21.320312 16.328125 21.375 16.390625 21.457031 C 16.4375 21.496094 16.488281 21.535156 16.535156 21.574219 C 16.621094 21.648438 16.691406 21.726562 16.753906 21.820312 C 16.816406 21.910156 16.886719 21.96875 16.96875 22.035156 C 17 22.082031 17.027344 22.132812 17.058594 22.179688 C 17.082031 22.199219 17.105469 22.21875 17.128906 22.238281 C 17.207031 22.300781 17.238281 22.355469 17.289062 22.4375 C 17.335938 22.488281 17.382812 22.535156 17.433594 22.582031 C 17.546875 22.691406 17.660156 22.804688 17.753906 22.929688 C 17.753906 22.949219 17.753906 22.96875 17.753906 22.988281 C 17.769531 22.996094 17.785156 23 17.804688 23.007812 C 17.886719 23.054688 17.929688 23.113281 17.984375 23.191406 C 17.984375 23.210938 17.984375 23.230469 17.984375 23.25 C 18.003906 23.257812 18.019531 23.265625 18.039062 23.273438 C 18.097656 23.304688 18.097656 23.304688 18.128906 23.363281 C 18.132812 23.417969 18.132812 23.46875 18.132812 23.519531 C 18.132812 23.554688 18.132812 23.589844 18.132812 23.621094 C 18.132812 23.660156 18.132812 23.695312 18.132812 23.734375 C 18.132812 23.773438 18.132812 23.816406 18.132812 23.855469 C 18.132812 23.964844 18.132812 24.074219 18.132812 24.183594 C 18.128906 24.300781 18.128906 24.417969 18.128906 24.535156 C 18.128906 24.820312 18.128906 25.105469 18.128906 25.390625 C 18.128906 25.523438 18.128906 25.660156 18.128906 25.792969 C 18.128906 26.238281 18.125 26.6875 18.125 27.132812 C 18.125 27.25 18.125 27.367188 18.125 27.480469 C 18.125 27.511719 18.125 27.539062 18.125 27.570312 C 18.125 28.035156 18.121094 28.5 18.121094 28.964844 C 18.121094 29.445312 18.121094 29.925781 18.121094 30.402344 C 18.117188 30.671875 18.117188 30.941406 18.117188 31.210938 C 18.117188 31.4375 18.117188 31.667969 18.117188 31.898438 C 18.117188 32.011719 18.117188 32.128906 18.117188 32.246094 C 18.117188 33.296875 17.96875 34.265625 17.203125 35.039062 C 16.621094 35.609375 15.9375 35.835938 15.136719 35.828125 C 15.089844 35.828125 15.042969 35.828125 15 35.828125 C 14.875 35.828125 14.753906 35.828125 14.632812 35.828125 C 14.503906 35.828125 14.375 35.828125 14.246094 35.828125 C 14.003906 35.824219 13.757812 35.824219 13.515625 35.824219 C 13.238281 35.824219 12.960938 35.824219 12.683594 35.824219 C 12.117188 35.820312 11.546875 35.820312 10.980469 35.816406 C 10.976562 34.847656 10.976562 33.882812 10.976562 32.914062 C 10.976562 32.796875 10.976562 32.679688 10.976562 32.5625 C 10.976562 32.539062 10.976562 32.515625 10.976562 32.492188 C 10.976562 32.167969 10.976562 31.847656 10.976562 31.527344 C 10.976562 30.96875 10.976562 30.410156 10.976562 29.851562 C 10.976562 29.832031 10.976562 29.808594 10.976562 29.785156 C 10.976562 27.800781 10.988281 25.8125 11.007812 23.828125 C 11.027344 23.828125 11.046875 23.828125 11.066406 23.828125 C 11.066406 23.804688 11.070312 23.785156 11.070312 23.765625 C 11.082031 23.605469 11.101562 23.460938 11.152344 23.304688 C 11.160156 23.28125 11.167969 23.253906 11.175781 23.226562 C 11.308594 22.753906 11.554688 22.1875 11.90625 21.832031 C 11.925781 21.832031 11.941406 21.832031 11.964844 21.832031 C 11.972656 21.800781 11.972656 21.800781 11.984375 21.769531 C 12.199219 21.296875 12.871094 20.964844 13.332031 20.785156 C 13.414062 20.753906 13.5 20.730469 13.582031 20.707031 C 13.613281 20.695312 13.644531 20.6875 13.671875 20.679688 C 14.472656 20.46875 15.226562 20.648438 15.929688 21.050781 Z M 15.929688 21.050781 "/>
<path style=" stroke:none;fill-rule:nonzero;fill:rgb(98.823529%,8.627451%,24.313726%);fill-opacity:1;" d="M 44.496094 39.074219 C 44.523438 39.074219 44.550781 39.074219 44.578125 39.074219 C 44.996094 39.074219 45.394531 39.089844 45.800781 39.199219 C 45.820312 39.203125 45.84375 39.210938 45.863281 39.214844 C 46.160156 39.292969 46.445312 39.410156 46.726562 39.523438 C 46.777344 39.542969 46.828125 39.5625 46.878906 39.582031 C 47.632812 39.871094 48.316406 40.480469 48.8125 41.105469 C 48.832031 41.132812 48.855469 41.160156 48.875 41.1875 C 49.761719 42.328125 50.128906 43.78125 49.960938 45.207031 C 49.78125 46.597656 49.074219 47.925781 47.957031 48.789062 C 46.753906 49.707031 45.320312 50.125 43.804688 49.953125 C 42.675781 49.800781 41.621094 49.316406 40.792969 48.53125 C 40.753906 48.5 40.714844 48.464844 40.675781 48.429688 C 40.152344 47.976562 39.730469 47.328125 39.492188 46.683594 C 39.480469 46.652344 39.46875 46.625 39.457031 46.59375 C 39.417969 46.5 39.382812 46.402344 39.347656 46.308594 C 39.332031 46.273438 39.320312 46.242188 39.308594 46.207031 C 39.152344 45.742188 39.070312 45.234375 39.054688 44.746094 C 39.054688 44.714844 39.054688 44.679688 39.054688 44.644531 C 39.042969 44.125 39.085938 43.601562 39.230469 43.101562 C 39.234375 43.082031 39.242188 43.0625 39.246094 43.042969 C 39.46875 42.261719 39.847656 41.542969 40.386719 40.933594 C 40.402344 40.917969 40.414062 40.90625 40.425781 40.890625 C 40.890625 40.363281 41.441406 39.949219 42.066406 39.632812 C 42.085938 39.621094 42.105469 39.613281 42.125 39.601562 C 42.476562 39.429688 42.832031 39.300781 43.210938 39.207031 C 43.238281 39.203125 43.261719 39.195312 43.285156 39.191406 C 43.363281 39.171875 43.4375 39.15625 43.515625 39.140625 C 43.554688 39.132812 43.554688 39.132812 43.597656 39.125 C 43.894531 39.070312 44.191406 39.070312 44.496094 39.074219 Z M 44.496094 39.074219 "/>
<path style=" stroke:none;fill-rule:nonzero;fill:rgb(25.490198%,20.392157%,81.176472%);fill-opacity:1;" d="M 35.902344 29.808594 C 35.910156 29.808594 35.921875 29.808594 35.929688 29.808594 C 35.945312 30.585938 35.953125 31.34375 35.699219 32.089844 C 35.683594 32.132812 35.671875 32.175781 35.65625 32.21875 C 35.421875 32.941406 35.070312 33.601562 34.570312 34.171875 C 34.546875 34.195312 34.527344 34.222656 34.503906 34.246094 C 34.4375 34.320312 34.375 34.390625 34.308594 34.460938 C 34.292969 34.476562 34.277344 34.496094 34.261719 34.511719 C 33.558594 35.253906 32.46875 35.773438 31.445312 35.804688 C 30.996094 35.8125 30.574219 35.78125 30.140625 35.644531 C 30.109375 35.636719 30.109375 35.636719 30.078125 35.625 C 29.617188 35.484375 28.996094 35.1875 28.722656 34.777344 C 28.742188 34.777344 28.761719 34.777344 28.78125 34.777344 C 28.789062 34.753906 28.796875 34.730469 28.804688 34.703125 C 28.839844 34.601562 28.882812 34.503906 28.933594 34.40625 C 28.941406 34.390625 28.953125 34.371094 28.960938 34.351562 C 28.992188 34.289062 29.023438 34.226562 29.054688 34.164062 C 29.078125 34.121094 29.097656 34.078125 29.121094 34.03125 C 29.167969 33.941406 29.214844 33.847656 29.261719 33.757812 C 29.316406 33.640625 29.375 33.523438 29.433594 33.410156 C 29.648438 32.984375 29.859375 32.5625 30.082031 32.144531 C 30.171875 31.972656 30.261719 31.796875 30.347656 31.621094 C 30.363281 31.589844 30.378906 31.554688 30.398438 31.523438 C 30.4375 31.441406 30.476562 31.363281 30.515625 31.28125 C 30.546875 31.28125 30.574219 31.28125 30.605469 31.28125 C 30.660156 31.335938 30.710938 31.390625 30.761719 31.453125 C 31.273438 32.027344 31.976562 32.371094 32.75 32.417969 C 33.421875 32.441406 34.09375 32.242188 34.628906 31.832031 C 34.644531 31.820312 34.660156 31.808594 34.675781 31.792969 C 35.335938 31.28125 35.6875 30.601562 35.902344 29.808594 Z M 35.902344 29.808594 "/>
<path style=" stroke:none;fill-rule:nonzero;fill:rgb(16.078432%,22.745098%,87.058824%);fill-opacity:1;" d="M 25.019531 26.023438 C 25.042969 26.027344 25.070312 26.03125 25.097656 26.035156 C 25.195312 26.054688 25.195312 26.054688 25.308594 26.050781 C 25.320312 26.078125 25.320312 26.078125 25.335938 26.109375 C 25.316406 26.117188 25.296875 26.128906 25.277344 26.136719 C 25.257812 26.226562 25.257812 26.226562 25.25 26.3125 C 25.21875 26.3125 25.191406 26.3125 25.164062 26.3125 C 25.175781 26.339844 25.175781 26.339844 25.191406 26.367188 C 25.171875 26.386719 25.152344 26.40625 25.132812 26.425781 C 25.128906 26.445312 25.125 26.464844 25.121094 26.488281 C 25.113281 26.515625 25.113281 26.515625 25.105469 26.542969 C 25.074219 26.550781 25.046875 26.5625 25.019531 26.570312 C 25.023438 26.59375 25.03125 26.617188 25.035156 26.640625 C 25.039062 26.664062 25.042969 26.691406 25.046875 26.714844 C 25.027344 26.734375 25.007812 26.753906 24.988281 26.773438 C 24.964844 26.832031 24.945312 26.890625 24.925781 26.949219 C 24.898438 27.011719 24.867188 27.046875 24.816406 27.089844 C 24.796875 27.089844 24.777344 27.089844 24.757812 27.089844 C 24.765625 27.121094 24.777344 27.148438 24.785156 27.179688 C 24.757812 27.191406 24.757812 27.191406 24.726562 27.207031 C 24.738281 27.226562 24.746094 27.246094 24.757812 27.265625 C 24.738281 27.265625 24.71875 27.265625 24.699219 27.265625 C 24.699219 27.285156 24.699219 27.304688 24.699219 27.324219 C 24.671875 27.335938 24.671875 27.335938 24.640625 27.351562 C 24.636719 27.382812 24.636719 27.382812 24.628906 27.414062 C 24.609375 27.503906 24.574219 27.566406 24.527344 27.644531 C 24.492188 27.707031 24.464844 27.773438 24.4375 27.84375 C 24.410156 27.902344 24.378906 27.960938 24.351562 28.023438 C 24.335938 28.050781 24.320312 28.082031 24.304688 28.113281 C 24.292969 28.136719 24.277344 28.164062 24.265625 28.191406 C 24.253906 28.207031 24.246094 28.226562 24.234375 28.246094 C 24.21875 28.246094 24.199219 28.246094 24.179688 28.246094 C 24.1875 28.277344 24.199219 28.304688 24.207031 28.335938 C 24.179688 28.382812 24.152344 28.433594 24.125 28.480469 C 24.085938 28.542969 24.085938 28.542969 24.046875 28.640625 C 24.003906 28.738281 24.003906 28.738281 23.945312 28.8125 C 23.882812 28.890625 23.859375 28.960938 23.832031 29.054688 C 23.804688 29.125 23.773438 29.191406 23.742188 29.257812 C 23.667969 29.230469 23.628906 29.199219 23.570312 29.140625 C 23.523438 29.011719 23.574219 28.921875 23.628906 28.796875 C 23.636719 28.777344 23.644531 28.757812 23.652344 28.738281 C 23.671875 28.691406 23.695312 28.640625 23.714844 28.59375 C 23.730469 28.558594 23.730469 28.558594 23.742188 28.527344 C 23.773438 28.476562 23.773438 28.476562 23.859375 28.449219 C 23.839844 28.410156 23.820312 28.375 23.800781 28.335938 C 23.839844 28.292969 23.875 28.253906 23.914062 28.210938 C 23.953125 28.148438 23.960938 28.089844 23.976562 28.015625 C 24.003906 27.957031 24.003906 27.957031 24.039062 27.898438 C 24.132812 27.738281 24.210938 27.574219 24.292969 27.410156 C 24.308594 27.378906 24.324219 27.351562 24.339844 27.320312 C 24.371094 27.253906 24.398438 27.1875 24.425781 27.117188 C 24.457031 27.027344 24.496094 26.964844 24.554688 26.890625 C 24.609375 26.785156 24.65625 26.679688 24.699219 26.570312 C 24.789062 26.378906 24.90625 26.199219 25.019531 26.023438 Z M 25.019531 26.023438 "/>
<path style=" stroke:none;fill-rule:nonzero;fill:rgb(16.078432%,22.745098%,86.666667%);fill-opacity:1;" d="M 33.816406 25.964844 C 33.875 26.003906 33.902344 26.039062 33.917969 26.105469 C 33.933594 26.242188 33.933594 26.375 33.933594 26.511719 C 33.914062 26.511719 33.894531 26.511719 33.875 26.511719 C 33.90625 26.542969 33.90625 26.542969 33.933594 26.578125 C 34.019531 26.699219 33.984375 26.828125 33.96875 26.96875 C 33.960938 27.078125 33.976562 27.164062 34.007812 27.269531 C 34.023438 27.332031 34.007812 27.375 33.992188 27.4375 C 34 27.457031 34.011719 27.476562 34.019531 27.496094 C 34 27.496094 33.980469 27.496094 33.960938 27.496094 C 33.976562 27.523438 33.988281 27.546875 34.003906 27.574219 C 34.089844 27.75 34.089844 27.75 34.050781 27.875 C 34.039062 27.902344 34.03125 27.929688 34.019531 27.957031 C 34.015625 28.015625 34.015625 28.015625 34.035156 28.074219 C 34.042969 28.101562 34.042969 28.101562 34.050781 28.132812 C 34.035156 28.144531 34.035156 28.144531 34.019531 28.160156 C 34.039062 28.179688 34.058594 28.199219 34.078125 28.21875 C 34.066406 28.28125 34.066406 28.28125 34.050781 28.335938 C 34.066406 28.34375 34.085938 28.351562 34.105469 28.363281 C 34.101562 28.398438 34.09375 28.433594 34.089844 28.472656 C 34.074219 28.574219 34.085938 28.621094 34.136719 28.710938 C 34.125 28.75 34.117188 28.785156 34.105469 28.824219 C 34.132812 28.890625 34.132812 28.890625 34.164062 28.941406 C 34.144531 28.941406 34.125 28.941406 34.105469 28.941406 C 34.121094 28.972656 34.121094 28.972656 34.136719 29.007812 C 34.164062 29.085938 34.164062 29.085938 34.164062 29.171875 C 34.171875 29.210938 34.183594 29.25 34.195312 29.289062 C 34.175781 29.289062 34.15625 29.289062 34.136719 29.289062 C 34.148438 29.320312 34.148438 29.320312 34.164062 29.355469 C 34.195312 29.433594 34.195312 29.433594 34.195312 29.519531 C 34.175781 29.519531 34.15625 29.519531 34.136719 29.519531 C 34.144531 29.535156 34.15625 29.550781 34.167969 29.570312 C 34.199219 29.648438 34.1875 29.671875 34.164062 29.75 C 34.171875 29.796875 34.183594 29.847656 34.195312 29.894531 C 34.199219 29.949219 34.207031 30 34.210938 30.054688 C 34.214844 30.09375 34.214844 30.09375 34.21875 30.136719 C 34.222656 30.199219 34.222656 30.265625 34.222656 30.328125 C 34.238281 30.398438 34.253906 30.472656 34.269531 30.542969 C 34.28125 30.617188 34.28125 30.617188 34.265625 30.691406 C 34.242188 30.769531 34.242188 30.769531 34.308594 30.847656 C 34.304688 30.867188 34.300781 30.886719 34.296875 30.910156 C 34.277344 31.011719 34.296875 31.089844 34.324219 31.1875 C 34.339844 31.253906 34.339844 31.253906 34.339844 31.367188 C 34.328125 31.378906 34.320312 31.386719 34.308594 31.398438 C 34.328125 31.425781 34.347656 31.453125 34.367188 31.484375 C 34.367188 31.582031 34.34375 31.652344 34.308594 31.742188 C 34.261719 31.753906 34.214844 31.761719 34.164062 31.773438 C 34.097656 31.566406 34.097656 31.566406 34.136719 31.453125 C 34.136719 31.425781 34.136719 31.398438 34.136719 31.367188 C 34.136719 31.347656 34.136719 31.328125 34.136719 31.308594 C 34.125 31.28125 34.117188 31.25 34.105469 31.214844 C 34.078125 31.105469 34.085938 31.042969 34.105469 30.933594 C 34.097656 30.90625 34.085938 30.878906 34.078125 30.847656 C 34.097656 30.820312 34.117188 30.789062 34.136719 30.761719 C 34.113281 30.691406 34.113281 30.691406 34.078125 30.617188 C 34.023438 30.503906 34.019531 30.449219 34.050781 30.328125 C 34.050781 30.234375 34.042969 30.183594 34.019531 30.097656 C 33.988281 29.902344 33.992188 29.714844 33.992188 29.519531 C 33.988281 29.46875 33.984375 29.421875 33.976562 29.375 C 33.976562 29.351562 33.972656 29.324219 33.972656 29.300781 C 33.964844 29.230469 33.964844 29.230469 33.945312 29.167969 C 33.925781 29.085938 33.933594 29.027344 33.953125 28.945312 C 33.972656 28.851562 33.972656 28.851562 33.917969 28.789062 C 33.859375 28.679688 33.890625 28.609375 33.921875 28.492188 C 33.9375 28.402344 33.910156 28.359375 33.875 28.277344 C 33.863281 28.195312 33.863281 28.195312 33.859375 28.117188 C 33.851562 28.003906 33.851562 28.003906 33.828125 27.894531 C 33.824219 27.878906 33.820312 27.859375 33.816406 27.84375 C 33.859375 27.792969 33.859375 27.792969 33.902344 27.757812 C 33.886719 27.742188 33.875 27.726562 33.855469 27.710938 C 33.84375 27.6875 33.832031 27.664062 33.816406 27.640625 C 33.828125 27.613281 33.835938 27.585938 33.847656 27.554688 C 33.855469 27.527344 33.867188 27.496094 33.875 27.46875 C 33.855469 27.441406 33.835938 27.417969 33.816406 27.394531 C 33.796875 27.371094 33.777344 27.347656 33.757812 27.324219 C 33.785156 27.234375 33.785156 27.234375 33.816406 27.148438 C 33.800781 27.101562 33.78125 27.050781 33.757812 27.003906 C 33.769531 26.957031 33.777344 26.910156 33.789062 26.859375 C 33.78125 26.8125 33.769531 26.761719 33.757812 26.714844 C 33.757812 26.6875 33.757812 26.660156 33.757812 26.628906 C 33.742188 26.609375 33.722656 26.589844 33.703125 26.570312 C 33.710938 26.511719 33.71875 26.457031 33.730469 26.398438 C 33.722656 26.378906 33.710938 26.359375 33.703125 26.339844 C 33.71875 26.273438 33.738281 26.207031 33.757812 26.136719 C 33.757812 26.109375 33.757812 26.082031 33.757812 26.050781 C 33.777344 26.023438 33.796875 25.992188 33.816406 25.964844 Z M 33.816406 25.964844 "/>
<path style=" stroke:none;fill-rule:nonzero;fill:rgb(26.666668%,24.313726%,79.607844%);fill-opacity:1;" d="M 46.902344 35.355469 C 46.902344 35.632812 46.902344 35.910156 46.902344 36.195312 C 46.816406 36.175781 46.734375 36.15625 46.648438 36.140625 C 46.625 36.132812 46.597656 36.128906 46.570312 36.121094 C 46.453125 36.097656 46.34375 36.070312 46.234375 36.019531 C 46.367188 35.863281 46.503906 35.71875 46.648438 35.574219 C 46.671875 35.554688 46.691406 35.53125 46.714844 35.511719 C 46.734375 35.492188 46.753906 35.46875 46.773438 35.449219 C 46.792969 35.433594 46.808594 35.414062 46.828125 35.394531 C 46.871094 35.355469 46.871094 35.355469 46.902344 35.355469 Z M 46.902344 35.355469 "/>
</g>
</svg>
